{"glyphs":{":":{"x_min":0,"x_max":315,"ha":315,"o":"m 201 52 q 201 25 182 5 q 162 -14 135 -14 q 107 -14 88 5 q 69 24 69 52 q 69 80 88 99 q 107 118 135 118 q 163 118 182 99 q 201 79 201 52 z m 254 332 q 254 305 234 286 q 215 266 188 266 q 160 266 141 285 q 122 304 122 332 q 122 360 141 379 q 160 398 188 398 q 215 398 235 379 q 254 359 254 332 z"},"$":{"x_min":0,"x_max":509,"ha":509,"o":"m 245 29 q 308 46 345 83 q 382 120 382 166 q 382 201 361 225 q 339 250 295 264 z m 152 27 q 165 25 173 25 q 181 24 186 24 q 200 24 208 24 q 215 25 221 26 l 271 274 l 207 294 z m 229 398 l 294 378 l 341 605 q 334 605 328 606 q 321 606 314 606 q 306 606 296 605 q 286 604 273 603 z m 206 405 l 246 598 q 199 585 169 553 q 139 521 139 485 q 139 458 156 438 q 172 418 206 405 z m 127 -97 l 104 -97 l 125 6 q 73 20 40 51 q 8 83 8 119 q 8 156 25 178 q 42 200 70 200 q 91 200 103 188 q 114 177 114 155 q 114 143 109 133 q 104 123 96 117 q 89 113 76 108 q 53 102 53 85 q 53 71 75 56 q 97 41 131 32 l 186 302 q 141 318 116 353 q 92 388 92 436 q 92 504 134 554 q 177 603 253 623 l 266 687 l 289 687 l 278 626 q 290 627 299 628 q 308 629 317 629 q 325 629 332 629 q 339 628 346 628 l 359 687 l 383 687 l 368 624 q 418 609 446 580 q 473 550 473 512 q 473 485 459 469 q 446 452 423 452 q 403 452 391 463 q 378 475 378 492 q 378 519 401 531 q 425 544 425 556 q 425 570 409 581 q 394 592 364 600 l 315 367 q 376 341 405 303 q 433 265 433 208 q 433 133 380 76 q 327 20 240 3 l 220 -97 l 197 -97 l 216 1 q 208 0 202 0 q 195 0 189 0 q 181 0 170 1 q 160 1 148 3 z"},"?":{"x_min":0,"x_max":500,"ha":500,"o":"m 232 50 q 232 23 212 3 q 193 -16 166 -16 q 138 -16 119 3 q 100 22 100 50 q 100 78 119 97 q 138 116 166 116 q 193 116 213 97 q 232 77 232 50 z m 193 206 l 167 206 q 167 211 166 218 q 166 225 166 237 q 166 300 189 343 q 213 386 266 420 q 283 431 313 448 q 403 499 403 557 q 403 601 370 630 q 337 658 287 658 q 243 658 212 641 q 180 625 180 606 q 180 604 206 591 q 232 577 232 545 q 232 526 220 516 q 208 506 186 506 q 162 506 147 521 q 132 535 132 558 q 132 611 175 646 q 218 681 285 681 q 364 681 412 638 q 459 594 459 522 q 459 461 431 420 q 402 380 330 341 q 314 333 286 319 q 193 273 193 216 z"},"<":{"x_min":0,"x_max":833,"ha":833,"o":"m 704 566 l 704 491 l 231 298 l 704 106 l 704 31 l 129 267 l 129 330 z"},"'":{"x_min":0,"x_max":172,"ha":172,"o":"m 95 420 l 78 420 l 44 644 q 44 645 43 648 q 42 658 42 662 q 42 687 53 700 q 65 714 86 714 q 106 714 118 701 q 130 688 130 664 q 130 661 130 657 q 129 653 128 644 z"},"=":{"x_min":0,"x_max":833,"ha":833,"o":"m 124 235 l 709 235 l 709 167 l 124 167 z m 124 429 l 709 429 l 709 361 l 124 361 z"},"a":{"x_min":0,"x_max":539,"ha":539,"o":"m 504 139 l 524 128 q 501 65 459 25 q 417 -15 374 -15 q 340 -15 323 0 q 305 15 305 44 l 305 53 l 299 53 q 272 17 242 1 q 211 -15 170 -15 q 112 -15 74 29 q 36 73 36 138 q 36 182 54 227 q 71 272 103 309 q 139 351 183 374 q 226 398 266 398 q 300 398 323 381 q 346 365 357 331 l 365 331 l 380 389 l 479 389 l 404 67 q 403 65 403 63 q 403 61 403 54 q 403 45 407 41 q 412 36 421 36 q 439 36 464 66 q 488 95 504 139 z m 274 372 q 241 372 216 343 q 192 313 172 248 q 155 194 146 145 q 136 96 136 70 q 136 42 150 27 q 165 12 192 12 q 228 12 260 43 q 292 74 311 128 q 324 164 332 210 q 341 256 341 283 q 341 323 322 347 q 304 372 274 372 z"},"L":{"x_min":0,"x_max":609,"ha":609,"o":"m 190 25 l 303 25 q 384 25 433 64 q 481 103 531 210 l 561 207 l 510 0 l -30 0 l -30 25 l 64 25 l 184 641 l 101 641 l 101 667 l 394 667 l 394 641 l 309 641 z"},"3":{"x_min":0,"x_max":509,"ha":509,"o":"m 268 349 l 268 340 q 336 331 378 291 q 419 251 419 196 q 419 107 345 46 q 271 -16 165 -16 q 97 -16 53 17 q 10 50 10 102 q 10 131 26 150 q 42 168 68 168 q 93 168 106 155 q 119 142 119 116 q 119 89 94 73 q 68 57 68 49 q 68 34 93 21 q 117 8 151 8 q 222 8 265 69 q 309 130 309 230 q 309 279 283 305 q 257 331 207 331 q 194 331 176 328 q 157 325 152 325 q 142 325 136 329 q 130 333 130 340 q 130 349 136 353 q 143 358 155 358 q 163 358 177 356 q 191 355 198 355 q 262 355 300 406 q 337 456 337 539 q 337 583 320 602 q 302 622 264 622 q 233 622 209 610 q 185 597 185 584 q 185 577 197 562 q 209 546 209 531 q 209 508 196 495 q 183 482 160 482 q 137 482 125 494 q 113 507 113 531 q 113 578 162 612 q 212 646 284 646 q 357 646 401 610 q 446 574 446 516 q 446 454 402 413 q 359 373 268 349 z"},";":{"x_min":0,"x_max":315,"ha":315,"o":"m 79 -146 l 67 -124 q 123 -97 156 -56 q 190 -16 190 21 q 190 28 187 33 q 184 39 181 39 q 178 39 162 16 q 146 -7 118 -7 q 93 -7 79 10 q 64 26 64 55 q 64 83 85 101 q 106 119 137 119 q 177 119 202 93 q 227 66 227 23 q 227 -25 186 -73 q 144 -122 79 -146 z m 257 332 q 257 305 237 286 q 218 266 191 266 q 163 266 144 285 q 125 304 125 332 q 125 360 144 379 q 163 398 191 398 q 218 398 238 379 q 257 359 257 332 z"},"J":{"x_min":0,"x_max":435,"ha":435,"o":"m 236 641 l 153 641 l 153 667 l 456 667 l 456 641 l 362 641 l 278 203 q 248 43 196 -22 q 145 -88 55 -88 q 6 -88 -24 -64 q -54 -40 -54 -2 q -54 27 -38 45 q -22 63 4 63 q 28 63 42 50 q 56 37 56 16 q 56 -5 41 -24 q 26 -43 26 -45 q 26 -51 35 -57 q 43 -62 55 -62 q 81 -62 95 -41 q 110 -19 122 47 z"},"V":{"x_min":0,"x_max":611,"ha":611,"o":"m 485 667 l 668 667 l 668 641 l 613 641 l 191 -21 l 159 -21 l 146 641 l 56 641 l 56 667 l 357 667 l 357 641 l 267 641 l 276 166 l 581 641 l 485 641 z"},"\"":{"x_min":0,"x_max":335,"ha":335,"o":"m 257 420 l 240 420 l 206 644 q 206 647 205 651 q 205 655 205 662 q 205 687 216 700 q 227 714 248 714 q 269 714 280 701 q 292 688 292 664 q 292 656 292 652 q 292 648 291 644 z m 95 420 l 78 420 l 44 644 q 43 652 42 657 q 42 661 42 664 q 42 688 54 701 q 65 714 86 714 q 107 714 119 700 q 130 687 130 662 q 130 654 130 651 q 129 647 129 644 z"},"7":{"x_min":0,"x_max":509,"ha":509,"o":"m 123 463 l 95 463 l 175 632 l 514 632 l 514 609 l 385 407 q 322 309 296 246 q 270 184 270 133 q 270 116 272 86 q 275 56 275 43 q 275 16 258 0 q 242 -16 213 -16 q 183 -16 167 0 q 151 17 151 47 q 151 66 160 90 q 168 113 187 143 l 431 533 l 431 547 l 194 547 q 160 547 126 470 z"},"S":{"x_min":0,"x_max":553,"ha":553,"o":"m 50 0 l 29 0 l 54 190 l 86 190 q 99 103 141 57 q 183 11 251 11 q 314 11 358 52 q 402 92 402 150 q 402 185 382 214 q 362 243 327 261 l 243 304 q 159 347 132 385 q 106 423 106 485 q 106 572 158 627 q 210 681 294 681 q 337 681 371 667 q 404 653 430 624 l 479 670 l 493 670 l 466 491 l 440 491 q 430 569 393 611 q 357 653 300 653 q 242 653 204 621 q 166 590 166 544 q 166 516 180 497 q 195 478 241 455 l 334 408 q 402 374 434 327 q 466 279 466 212 q 466 109 404 46 q 342 -17 240 -17 q 198 -17 163 -1 q 129 14 106 43 z"},"}":{"x_min":0,"x_max":500,"ha":500,"o":"m 86 740 l 91 740 q 198 740 239 704 q 279 668 279 571 l 279 470 q 279 392 307 362 q 335 333 414 326 l 414 295 q 335 289 307 259 q 279 229 279 151 l 279 50 q 279 -47 239 -83 q 198 -119 91 -119 l 86 -119 l 86 -93 q 153 -92 177 -67 q 201 -41 201 35 l 201 104 q 201 215 230 255 q 258 294 336 310 q 259 326 230 365 q 201 405 201 516 l 201 585 q 201 662 177 688 q 152 713 86 714 z"},"Z":{"x_min":0,"x_max":611,"ha":611,"o":"m 490 0 l 14 0 l 14 31 l 439 641 l 341 641 q 275 641 225 604 q 174 567 134 491 l 104 491 l 147 667 l 581 667 l 581 634 l 157 25 l 256 25 q 361 25 415 65 q 470 105 509 205 l 538 205 z"},"x":{"x_min":0,"x_max":507,"ha":507,"o":"m 447 139 l 465 130 q 437 57 399 21 q 362 -14 312 -14 q 280 -14 263 3 q 246 21 236 64 l 219 141 l 211 141 q 204 131 192 112 q 107 -14 58 -14 q 37 -14 24 -1 q 11 11 11 32 q 11 51 23 63 q 35 75 53 75 q 70 75 85 63 q 100 52 103 52 q 112 52 133 76 q 154 100 208 177 l 182 297 q 175 327 169 334 q 163 342 152 342 q 141 342 130 331 q 119 320 100 286 l 75 242 l 57 252 q 94 329 128 364 q 162 398 201 398 q 232 398 252 379 q 273 360 280 326 l 289 280 l 298 280 q 346 349 372 374 q 398 398 423 398 q 444 398 456 386 q 468 375 468 354 q 468 334 457 324 q 446 314 424 314 q 412 314 399 323 q 386 331 381 331 q 372 331 362 323 q 353 315 338 294 l 298 235 l 331 76 q 334 58 343 47 q 351 37 362 37 q 379 37 400 63 q 422 89 447 139 z"},")":{"x_min":0,"x_max":347,"ha":347,"o":"m 110 670 l 129 681 q 189 608 226 502 q 263 396 263 298 q 263 147 181 16 q 100 -115 -58 -218 l -70 -200 q -6 -151 37 -99 q 81 -46 109 17 q 145 96 166 199 q 187 303 187 398 q 187 479 168 545 q 149 611 110 670 z"},"&":{"x_min":0,"x_max":831,"ha":831,"o":"m 415 99 q 384 138 351 210 q 318 283 289 378 q 224 354 191 314 q 158 274 158 220 q 158 148 199 91 q 240 33 292 33 q 320 33 351 50 q 382 66 415 99 z m 769 114 q 743 54 693 19 q 643 -16 585 -16 q 539 -16 501 6 q 463 29 431 75 q 386 30 335 7 q 284 -16 226 -16 q 144 -16 91 34 q 39 85 39 163 q 39 248 97 305 q 156 363 281 401 q 272 438 268 467 q 263 496 263 517 q 263 594 313 638 q 363 681 453 681 q 525 681 565 652 q 606 623 606 572 q 606 522 559 486 q 513 450 399 414 q 427 335 449 287 q 470 238 493 200 q 513 229 544 284 q 621 417 692 417 q 727 417 748 400 q 768 382 768 353 q 768 329 754 313 q 740 298 717 298 q 698 298 684 310 q 670 321 670 337 q 670 346 675 359 q 680 372 680 375 q 680 378 678 380 q 676 382 671 382 q 633 382 559 254 q 528 200 509 169 q 543 105 576 74 q 608 44 641 44 q 671 44 698 64 q 724 85 749 128 z m 390 441 q 454 461 485 497 q 517 532 517 582 q 517 620 498 640 q 479 661 446 661 q 405 661 381 635 q 356 608 356 563 q 356 543 365 509 q 375 475 390 441 z"},"_":{"x_min":0,"x_max":500,"ha":500,"o":"m 0 -166 l 500 -166 l 500 -236 l 0 -236 z"},"v":{"x_min":0,"x_max":495,"ha":495,"o":"m 37 245 l 16 255 q 38 317 84 358 q 130 400 174 400 q 208 400 228 384 q 248 368 248 341 q 248 325 241 294 l 240 291 l 191 81 q 191 80 190 78 q 189 69 189 65 q 189 46 201 35 q 212 25 233 25 q 271 25 306 49 q 342 73 369 117 q 393 156 408 207 q 424 259 424 292 q 424 317 395 321 q 387 322 383 323 q 367 328 359 339 q 351 350 351 366 q 351 386 364 398 q 377 410 399 410 q 429 410 443 389 q 457 368 457 324 q 457 273 440 215 q 423 157 394 107 q 359 48 311 17 q 262 -14 203 -14 q 149 -14 119 11 q 89 37 89 81 q 89 90 90 97 q 91 105 93 113 l 142 318 q 143 323 144 326 q 144 329 144 331 q 144 339 139 344 q 134 348 124 348 q 105 348 79 318 q 53 289 37 245 z"},"O":{"x_min":0,"x_max":718,"ha":718,"o":"m 418 656 q 358 656 315 615 q 272 575 239 488 q 210 411 194 324 q 177 237 177 166 q 177 86 207 47 q 237 9 299 9 q 358 9 402 50 q 446 91 478 176 q 506 251 522 339 q 539 426 539 498 q 539 579 510 617 q 480 656 418 656 z m 41 252 q 41 322 68 392 q 96 461 149 526 q 211 603 282 642 q 354 681 432 681 q 539 681 608 605 q 677 529 677 412 q 677 345 649 275 q 622 205 570 140 q 507 62 436 23 q 364 -16 284 -16 q 179 -16 110 60 q 41 136 41 252 z"},"(":{"x_min":0,"x_max":347,"ha":347,"o":"m 206 -207 l 187 -218 q 127 -145 90 -39 q 53 66 53 165 q 53 315 135 447 q 216 579 374 681 l 386 663 q 321 614 278 561 q 234 509 206 446 q 170 367 149 264 q 128 160 128 65 q 128 -15 147 -81 q 166 -147 206 -207 z"},"C":{"x_min":0,"x_max":662,"ha":662,"o":"m 521 4 l 499 4 l 473 35 q 430 8 390 -5 q 350 -17 306 -17 q 188 -17 115 58 q 43 133 43 254 q 43 333 79 416 q 114 500 176 566 q 230 624 292 653 q 353 681 424 681 q 465 681 495 669 q 525 657 555 629 l 596 669 l 618 669 l 590 479 l 563 479 q 548 571 513 615 q 478 660 421 660 q 362 660 317 619 q 272 577 240 494 q 209 414 192 334 q 175 255 175 190 q 175 104 211 57 q 248 11 315 11 q 381 11 438 59 q 494 106 534 197 l 564 197 z"},"W":{"x_min":0,"x_max":882,"ha":882,"o":"m 502 465 l 627 641 l 501 641 z m 251 153 l 259 153 l 390 343 l 389 641 l 253 641 z m 175 -21 l 139 -21 l 136 641 l 49 641 l 49 667 l 718 667 l 718 641 l 662 641 l 502 410 l 504 157 l 511 157 l 845 641 l 778 641 l 778 667 l 940 667 l 940 641 l 881 641 l 427 -21 l 396 -21 l 396 298 z"},"A":{"x_min":0,"x_max":611,"ha":611,"o":"m 337 231 l 331 500 l 158 231 z m 123 0 l -60 0 l -60 25 l -5 25 l 413 681 l 448 681 l 461 25 l 551 25 l 551 0 l 250 0 l 250 25 l 340 25 l 337 204 l 142 204 l 26 25 l 123 25 z"},"f":{"x_min":0,"x_max":331,"ha":331,"o":"m 49 389 l 148 389 q 188 531 251 604 q 313 678 395 678 q 440 678 468 657 q 496 635 496 601 q 496 578 483 564 q 470 550 449 550 q 424 550 410 561 q 396 573 396 593 q 396 608 406 623 q 417 638 417 641 q 417 647 410 652 q 403 656 391 656 q 342 656 312 601 q 282 547 251 389 l 345 389 l 345 356 l 247 356 q 177 17 110 -109 q 43 -234 -59 -234 q -100 -234 -124 -217 q -148 -200 -148 -170 q -148 -145 -135 -131 q -123 -117 -100 -117 q -79 -117 -68 -128 q -57 -139 -57 -162 q -57 -170 -61 -179 q -65 -188 -65 -191 q -65 -200 -60 -204 q -54 -209 -44 -209 q 31 -209 93 117 q 122 265 141 356 l 49 356 z"},"Q":{"x_min":0,"x_max":718,"ha":718,"o":"m 544 -209 q 512 -215 487 -218 q 463 -220 444 -220 q 333 -220 278 -176 q 222 -131 222 -43 q 222 -33 224 -12 q 224 -10 224 -9 q 138 16 89 85 q 41 153 41 251 q 41 320 68 390 q 95 460 147 524 q 210 602 282 642 q 354 681 432 681 q 539 681 608 605 q 677 528 677 411 q 677 279 587 158 q 497 36 361 -10 q 358 -32 357 -50 q 356 -67 356 -82 q 356 -132 389 -162 q 421 -192 477 -192 q 491 -192 507 -189 q 523 -187 544 -182 z m 418 656 q 359 656 316 615 q 272 574 239 487 q 210 411 194 323 q 177 235 177 164 q 177 83 207 45 q 237 6 299 6 q 358 6 402 47 q 445 88 478 175 q 506 250 523 337 q 539 424 539 497 q 539 578 509 617 q 479 656 418 656 z"},"w":{"x_min":0,"x_max":718,"ha":718,"o":"m 91 104 l 139 318 q 140 321 140 323 q 140 326 140 331 q 140 340 136 344 q 131 348 122 348 q 104 348 81 318 q 57 289 41 245 l 22 255 q 42 318 85 359 q 127 400 168 400 q 200 400 219 384 q 237 369 237 341 q 237 328 232 304 q 230 295 229 291 l 183 81 q 181 72 180 64 q 179 56 179 46 q 179 36 186 30 q 193 24 205 24 q 249 24 303 123 q 357 221 404 389 l 497 389 l 465 245 q 453 191 446 145 q 439 98 439 82 q 439 56 452 40 q 465 24 486 24 q 512 24 540 50 q 567 76 596 127 q 619 167 633 215 q 647 262 647 291 q 647 316 616 321 q 609 322 605 323 q 589 329 580 339 q 572 350 572 365 q 572 385 585 397 q 599 409 622 409 q 651 409 665 388 q 679 366 679 322 q 679 284 667 236 q 656 187 636 144 q 602 69 553 27 q 505 -15 455 -15 q 408 -15 382 17 q 356 48 356 106 q 356 122 358 143 q 360 163 366 195 q 313 77 269 31 q 225 -15 169 -15 q 130 -15 108 5 q 87 26 87 64 q 87 75 88 85 q 89 95 91 104 z"},"-":{"x_min":0,"x_max":333,"ha":333,"o":"m 33 148 l 52 236 l 296 236 l 278 148 z"},"E":{"x_min":0,"x_max":664,"ha":664,"o":"m 257 332 l 197 25 l 310 25 q 391 25 439 64 q 487 103 537 210 l 568 207 l 517 0 l -23 0 l -23 25 l 71 25 l 191 641 l 108 641 l 108 667 l 613 667 l 587 484 l 558 484 l 558 509 q 558 576 527 609 q 496 641 432 641 l 316 641 l 262 356 l 278 356 q 340 356 374 383 q 408 411 425 475 l 452 475 l 398 199 l 371 199 l 371 232 q 371 293 349 313 q 327 332 267 332 z"},"s":{"x_min":0,"x_max":387,"ha":387,"o":"m 206 134 l 131 189 q 104 209 94 228 q 84 247 84 277 q 84 330 124 364 q 164 398 226 398 q 272 398 304 376 q 336 354 336 324 q 336 305 325 294 q 314 283 295 283 q 277 283 265 294 q 253 305 253 322 q 253 329 259 339 q 265 350 265 355 q 265 363 254 369 q 242 376 226 376 q 194 376 173 361 q 153 345 153 323 q 153 301 184 280 q 187 278 189 277 l 262 226 q 293 205 306 180 q 320 155 320 119 q 320 57 276 21 q 231 -14 154 -14 q 95 -14 61 10 q 26 33 26 73 q 26 94 39 108 q 52 122 72 122 q 94 122 104 112 q 115 101 115 80 q 115 69 109 53 q 103 37 103 31 q 103 20 116 14 q 130 8 154 8 q 197 8 222 25 q 247 42 247 72 q 247 88 237 104 q 227 120 206 134 z"},">":{"x_min":0,"x_max":833,"ha":833,"o":"m 129 566 l 704 330 l 704 267 l 129 31 l 129 106 l 603 298 l 129 491 z"},"l":{"x_min":0,"x_max":308,"ha":308,"o":"m 165 68 q 165 66 164 63 q 164 61 164 55 q 164 46 169 42 q 174 37 184 37 q 204 37 230 67 q 256 96 273 140 l 295 131 q 271 67 224 26 q 178 -14 130 -14 q 97 -14 77 2 q 57 18 57 44 q 57 52 59 63 q 61 75 65 94 l 197 646 l 120 646 l 120 669 l 178 669 q 212 669 240 671 q 268 673 292 678 l 313 678 z"},"8":{"x_min":0,"x_max":509,"ha":509,"o":"m 339 223 q 339 269 319 293 q 298 318 260 318 q 200 318 166 255 q 132 192 132 82 q 132 44 153 24 q 174 4 213 4 q 270 4 304 65 q 339 126 339 223 z m 196 418 q 196 382 216 362 q 235 343 272 343 q 301 343 319 359 q 337 375 351 412 q 363 445 371 483 q 378 521 378 549 q 378 587 361 607 q 345 627 312 627 q 262 627 229 566 q 196 504 196 418 z m 319 335 l 318 325 q 379 312 414 271 q 448 230 448 171 q 448 93 381 38 q 314 -17 217 -17 q 131 -17 78 29 q 25 74 25 146 q 25 213 79 266 q 133 318 215 329 l 217 339 q 167 349 136 386 q 105 424 105 474 q 105 548 164 597 q 223 646 313 646 q 392 646 438 608 q 484 569 484 504 q 484 441 441 397 q 398 354 319 335 z"},"\\":{"x_min":0,"x_max":278,"ha":278,"o":"m 162 -93 l 74 681 l 125 681 l 213 -93 z"},"e":{"x_min":0,"x_max":442,"ha":442,"o":"m 383 113 l 403 101 q 373 46 323 16 q 274 -14 215 -14 q 138 -14 88 33 q 38 80 38 153 q 38 250 112 324 q 186 398 283 398 q 344 398 383 369 q 422 341 422 296 q 422 237 363 202 q 304 168 200 168 q 192 168 182 168 q 172 169 151 170 q 145 146 141 126 q 138 107 138 94 q 138 54 160 33 q 181 11 221 11 q 267 11 309 38 q 352 64 383 113 z m 158 194 l 178 194 q 261 194 296 222 q 332 250 332 313 q 332 343 317 359 q 303 376 277 376 q 234 376 206 333 q 177 290 158 194 z"},"b":{"x_min":0,"x_max":528,"ha":528,"o":"m 247 11 q 282 11 307 40 q 332 68 351 133 q 368 189 378 238 q 388 287 388 312 q 388 341 374 355 q 359 369 330 369 q 292 369 259 338 q 226 308 208 254 q 193 212 183 161 q 173 111 173 89 q 173 53 193 32 q 213 11 247 11 z m 224 332 l 230 332 q 257 368 287 384 q 318 400 359 400 q 416 400 454 356 q 493 312 493 247 q 493 142 415 64 q 336 -14 225 -14 q 151 -14 110 17 q 70 48 70 104 q 70 121 72 139 q 75 158 79 177 l 192 646 l 115 646 l 115 669 l 174 669 q 207 669 234 671 q 261 673 286 678 l 308 678 z"},"%":{"x_min":0,"x_max":823,"ha":823,"o":"m 694 328 q 669 328 646 308 q 623 288 596 244 q 568 199 554 160 q 540 121 540 90 q 540 58 555 42 q 570 26 601 26 q 656 26 707 98 q 758 170 758 249 q 758 287 741 308 q 725 328 694 328 z m 458 105 q 458 204 529 285 q 601 365 681 365 q 730 365 758 334 q 785 303 785 247 q 785 150 721 69 q 658 -11 576 -11 q 525 -11 491 22 q 458 55 458 105 z m 191 -30 l 548 587 q 512 565 477 553 q 441 542 409 542 q 395 542 384 543 q 373 545 363 548 q 363 542 363 535 q 364 527 364 525 q 364 426 300 346 q 236 267 153 267 q 100 267 69 301 q 37 334 37 391 q 37 433 55 475 q 72 517 106 556 q 144 599 183 621 q 221 642 261 642 q 297 642 322 625 q 346 608 357 575 q 369 570 381 567 q 393 565 407 565 q 456 565 503 589 q 550 613 595 661 l 633 661 l 234 -30 z m 270 605 q 251 604 235 593 q 219 582 201 558 q 164 509 142 458 q 120 406 120 368 q 120 336 135 320 q 149 303 176 303 q 236 303 287 375 q 338 446 338 527 q 338 538 338 543 q 337 548 337 553 q 307 563 293 575 q 279 586 270 605 z"},"m":{"x_min":0,"x_max":801,"ha":801,"o":"m 146 0 l 44 0 l 128 366 l 54 366 l 54 389 l 110 389 q 143 389 169 391 q 195 394 219 398 l 240 398 l 219 312 l 228 312 q 271 356 308 377 q 346 397 384 397 q 424 397 449 378 q 474 359 474 330 q 474 326 473 321 q 473 317 471 312 l 479 312 q 520 356 557 377 q 593 397 632 397 q 673 397 696 378 q 719 359 719 325 q 719 314 712 282 l 712 281 l 663 68 q 662 63 661 61 q 661 58 661 55 q 661 46 666 42 q 671 37 680 37 q 698 37 723 66 q 749 96 765 140 l 784 131 q 764 69 720 27 q 676 -14 633 -14 q 599 -14 580 1 q 561 17 561 44 q 561 55 562 66 q 564 78 568 94 l 616 305 q 618 311 618 316 q 619 321 619 325 q 619 340 610 348 q 601 355 582 355 q 546 355 502 307 q 458 260 447 214 l 398 0 l 299 0 l 368 305 q 370 311 370 316 q 371 321 371 325 q 371 340 362 348 q 353 355 333 355 q 296 355 251 307 q 206 260 195 214 z"},"#":{"x_min":0,"x_max":769,"ha":769,"o":"m 343 422 l 295 287 l 433 287 l 480 422 z m 371 712 l 447 712 l 368 490 l 503 490 l 582 712 l 658 712 l 579 490 l 726 490 l 702 422 l 555 422 l 508 287 l 664 287 l 640 219 l 484 219 l 405 -2 l 329 -2 l 408 219 l 272 219 l 193 -2 l 118 -2 l 196 219 l 43 219 l 68 287 l 220 287 l 268 422 l 104 422 l 129 490 l 292 490 z"},",":{"x_min":0,"x_max":255,"ha":255,"o":"m 53 -146 l 41 -124 q 97 -97 130 -56 q 164 -16 164 21 q 164 28 161 33 q 158 39 155 39 q 152 39 136 16 q 120 -7 92 -7 q 67 -7 52 10 q 38 26 38 55 q 38 83 59 101 q 80 119 111 119 q 151 119 176 93 q 201 66 201 23 q 201 -25 160 -73 q 118 -122 53 -146 z"},"n":{"x_min":0,"x_max":553,"ha":553,"o":"m 145 0 l 44 0 l 127 366 l 53 366 l 53 389 l 109 389 q 142 389 168 391 q 194 394 218 398 l 239 398 l 219 312 l 228 312 q 268 355 306 376 q 343 397 383 397 q 426 397 449 378 q 472 359 472 325 q 472 315 470 304 q 469 293 466 281 l 415 68 q 414 65 414 62 q 413 59 413 55 q 413 46 418 42 q 423 37 433 37 q 452 37 477 67 q 503 96 519 140 l 538 131 q 520 70 473 28 q 427 -14 384 -14 q 349 -14 329 1 q 310 17 310 44 q 310 59 317 89 q 317 92 318 94 l 367 305 q 369 311 369 316 q 370 320 370 325 q 370 340 361 348 q 352 355 332 355 q 295 355 250 307 q 205 260 194 214 z"},"h":{"x_min":0,"x_max":553,"ha":553,"o":"m 145 0 l 44 0 l 192 646 l 118 646 l 118 669 l 174 669 q 206 669 233 671 q 259 673 283 678 l 303 678 l 219 312 l 228 312 q 268 355 306 376 q 343 397 383 397 q 426 397 449 378 q 472 359 472 325 q 472 315 470 304 q 469 293 466 281 l 415 68 q 414 65 414 62 q 413 59 413 55 q 413 46 418 42 q 423 37 433 37 q 452 37 477 67 q 503 96 519 140 l 539 131 q 517 68 472 27 q 427 -14 384 -14 q 349 -14 329 1 q 310 17 310 44 q 310 59 317 89 q 317 92 318 94 l 367 305 q 369 311 369 316 q 370 320 370 325 q 370 340 361 348 q 352 355 332 355 q 295 355 250 307 q 205 260 194 214 z"},"z":{"x_min":0,"x_max":442,"ha":442,"o":"m 80 247 l 57 255 l 125 400 q 138 397 211 377 q 284 356 336 356 q 356 356 364 360 q 372 365 375 382 q 377 392 383 396 q 388 401 398 401 q 407 401 413 395 q 419 389 419 380 q 419 371 415 363 q 410 355 398 344 l 143 117 l 146 110 q 203 109 266 85 q 328 61 337 61 q 348 61 356 67 q 364 73 364 81 q 364 89 357 96 q 351 102 341 102 l 337 102 q 325 102 318 110 q 310 118 310 131 q 310 146 319 156 q 328 165 343 165 q 366 165 379 149 q 392 133 392 104 q 392 54 353 20 q 314 -14 255 -14 q 241 -14 225 -11 q 209 -7 190 -1 l 104 30 q 102 31 98 33 q 83 39 75 39 q 70 39 66 34 q 62 30 62 24 l 62 10 q 62 -1 57 -7 q 53 -13 44 -13 q 32 -13 24 -7 q 16 -1 16 8 q 16 22 27 40 q 39 58 59 76 l 311 307 q 257 298 229 295 q 200 292 181 292 q 158 292 139 295 q 121 298 105 304 z"},"B":{"x_min":0,"x_max":662,"ha":662,"o":"m 5 0 l 5 25 l 68 25 l 187 641 l 104 641 l 104 666 l 397 666 q 504 666 559 630 q 614 593 614 522 q 614 449 561 404 q 508 359 413 350 l 413 343 q 488 330 528 287 q 568 244 568 178 q 568 83 507 42 q 446 0 303 0 z m 191 25 l 271 25 q 358 25 397 69 q 437 113 437 210 q 437 275 401 306 q 365 337 289 337 l 252 337 z m 257 362 l 303 362 q 358 362 384 369 q 409 375 427 391 q 453 414 469 453 q 484 492 484 535 q 484 593 453 617 q 422 641 343 641 l 310 641 z"},"K":{"x_min":0,"x_max":718,"ha":718,"o":"m 690 0 l 370 0 l 370 25 l 463 25 l 267 348 l 586 641 l 485 641 l 485 667 l 715 667 l 715 641 l 632 641 l 369 398 l 602 25 l 690 25 z m 281 0 l -23 0 l -23 25 l 71 25 l 191 641 l 108 641 l 108 667 l 411 667 l 411 641 l 316 641 l 197 25 l 281 25 z"},"R":{"x_min":0,"x_max":699,"ha":699,"o":"m 262 373 l 307 373 q 363 373 388 379 q 414 386 432 401 q 458 423 473 460 q 489 498 489 540 q 489 596 458 618 q 428 641 347 641 l 315 641 z m 273 0 l 9 0 l 9 25 l 72 25 l 192 641 l 109 641 l 109 666 l 401 666 q 507 666 563 630 q 618 594 618 525 q 618 447 552 402 q 486 357 366 354 l 366 343 q 453 323 493 275 q 533 227 533 141 l 533 85 q 533 49 548 31 q 562 12 591 12 q 600 12 612 15 q 624 17 640 22 l 640 -6 q 622 -14 601 -17 q 580 -21 554 -21 q 483 -21 443 19 q 403 59 400 132 l 395 237 q 393 288 359 318 q 325 348 270 348 q 268 348 263 348 q 259 347 256 347 l 195 25 l 273 25 z"},"T":{"x_min":0,"x_max":646,"ha":646,"o":"m 409 0 l 99 0 l 99 25 l 193 25 l 312 641 l 292 641 q 224 641 175 597 q 126 553 93 461 l 60 461 l 109 667 l 656 667 l 628 461 l 594 461 q 595 467 595 473 q 595 479 595 491 q 595 575 566 609 q 537 642 464 642 q 453 642 447 642 q 440 642 435 641 l 316 25 l 409 25 z"},"P":{"x_min":0,"x_max":620,"ha":620,"o":"m 253 335 l 302 335 q 359 335 384 342 q 410 349 427 366 q 454 391 469 433 q 484 476 484 525 q 484 589 453 615 q 422 641 343 641 l 310 641 z m 275 0 l 5 0 l 5 25 l 68 25 l 187 641 l 104 641 l 104 666 l 397 666 q 504 666 559 625 q 614 584 614 505 q 614 448 588 406 q 563 364 513 339 q 478 321 432 314 q 387 306 284 306 l 246 306 l 191 25 l 275 25 z"},"|":{"x_min":0,"x_max":500,"ha":500,"o":"m 214 764 l 287 764 l 287 -236 l 214 -236 z"},"t":{"x_min":0,"x_max":347,"ha":347,"o":"m 326 389 l 326 366 l 239 366 l 169 67 q 168 62 167 59 q 167 56 167 54 q 167 45 172 41 q 177 36 187 36 q 207 36 233 66 q 260 95 277 139 l 298 129 q 274 65 228 24 q 182 -16 134 -16 q 101 -16 80 0 q 60 16 60 42 q 60 51 62 63 q 64 76 68 93 l 132 366 l 67 366 l 67 389 l 139 389 l 165 490 q 195 491 223 495 q 250 500 275 507 l 249 389 z"},"M":{"x_min":0,"x_max":833,"ha":833,"o":"m 183 0 l -14 0 l -14 25 l 68 25 l 189 641 l 106 641 l 106 667 l 348 667 l 394 229 l 403 229 l 622 667 l 856 667 l 856 641 l 764 641 l 643 25 l 729 25 l 729 0 l 433 0 l 433 25 l 519 25 l 634 613 l 623 613 l 319 0 l 289 0 l 225 614 l 215 614 l 98 25 l 183 25 z"},"g":{"x_min":0,"x_max":498,"ha":498,"o":"m 116 -13 q 74 -28 51 -54 q 29 -80 29 -113 q 29 -155 68 -182 q 107 -209 169 -209 q 254 -209 310 -169 q 365 -129 365 -72 q 365 -51 351 -38 q 337 -26 313 -24 z m 277 378 q 247 378 229 367 q 212 356 202 330 q 191 303 182 264 q 174 225 174 205 q 174 179 189 166 q 204 152 232 152 q 264 152 279 165 q 294 178 307 215 q 317 244 323 276 q 328 308 328 332 q 328 353 314 365 q 301 378 277 378 z m 76 -5 l 76 1 q 51 9 37 27 q 24 44 24 69 q 24 94 48 119 q 72 144 122 170 q 107 187 100 208 q 92 229 92 253 q 92 314 143 356 q 193 398 268 398 q 314 398 348 379 q 381 360 402 322 q 416 367 432 385 q 449 404 473 404 q 489 404 500 394 q 510 384 510 369 q 510 355 502 346 q 494 337 481 337 q 474 337 461 342 q 449 347 443 347 q 430 347 419 300 q 408 252 391 219 q 368 175 330 152 q 292 129 243 129 q 208 129 182 136 q 156 143 142 156 q 114 143 100 129 q 87 116 87 103 q 87 89 97 83 q 108 76 136 75 l 256 70 q 347 66 377 44 q 407 21 407 -30 q 407 -123 341 -178 q 274 -234 161 -234 q 73 -234 18 -201 q -37 -167 -37 -116 q -37 -78 -6 -48 q 24 -17 76 -5 z"},"j":{"x_min":0,"x_max":282,"ha":282,"o":"m 166 589 q 166 613 182 630 q 198 646 222 646 q 246 646 263 629 q 280 613 280 589 q 280 565 263 549 q 246 532 222 532 q 198 532 182 549 q 166 565 166 589 z m 130 366 l 53 366 l 53 389 l 112 389 q 146 389 174 391 q 201 394 225 398 l 246 398 l 172 43 q 143 -100 91 -167 q 39 -234 -41 -234 q -81 -234 -105 -215 q -129 -197 -129 -168 q -129 -144 -116 -133 q -104 -121 -77 -121 q -59 -121 -49 -135 q -39 -148 -39 -173 q -39 -176 -40 -182 q -40 -188 -40 -191 q -40 -201 -36 -205 q -32 -208 -22 -208 q 0 -208 16 -177 q 31 -147 45 -76 z"},"i":{"x_min":0,"x_max":308,"ha":308,"o":"m 166 589 q 166 613 183 629 q 199 646 223 646 q 247 646 263 629 q 280 613 280 589 q 280 565 263 549 q 247 532 223 532 q 199 532 183 549 q 166 565 166 589 z m 165 68 q 165 66 164 63 q 164 61 164 55 q 164 46 169 42 q 174 37 184 37 q 204 37 230 67 q 256 96 273 140 l 295 131 q 271 67 224 26 q 178 -14 130 -14 q 97 -14 77 2 q 57 18 57 44 q 57 53 59 64 q 61 76 65 94 l 131 366 l 54 366 l 54 389 l 112 389 q 146 389 174 391 q 201 394 225 398 l 247 398 z"},"y":{"x_min":0,"x_max":498,"ha":498,"o":"m 57 238 l 37 246 q 72 330 100 364 q 128 398 160 398 q 191 398 210 380 q 229 363 242 322 l 298 133 l 309 133 l 379 320 q 396 366 411 381 q 425 396 449 396 q 467 396 479 383 q 492 370 492 351 q 492 331 481 319 q 471 308 452 308 q 445 308 435 313 q 425 318 422 318 q 416 318 410 312 q 404 307 400 296 l 314 64 q 252 -100 199 -167 q 146 -234 83 -234 q 55 -234 38 -219 q 21 -204 21 -180 q 21 -159 33 -147 q 44 -135 66 -135 q 93 -135 103 -162 q 112 -190 120 -190 q 131 -190 144 -181 q 156 -171 175 -148 q 202 -115 218 -80 q 234 -44 234 -22 q 234 -13 232 -2 q 231 8 228 18 l 141 303 q 137 318 132 324 q 126 330 118 330 q 109 330 100 317 q 90 305 70 265 z"},"@":{"x_min":0,"x_max":986,"ha":986,"o":"m 579 162 q 549 111 512 86 q 475 61 429 61 q 366 61 329 106 q 291 151 291 226 q 291 279 315 332 q 339 384 384 427 q 417 458 455 475 q 493 492 531 492 q 575 492 602 469 q 629 445 639 399 l 664 484 l 741 484 l 657 185 q 657 184 655 179 q 648 152 648 137 q 648 112 659 99 q 671 85 692 85 q 708 85 731 95 q 754 104 775 120 q 833 164 863 232 q 892 299 892 387 q 892 452 866 507 q 841 562 790 605 q 746 643 686 663 q 625 683 555 683 q 467 683 391 653 q 315 623 257 565 q 195 504 164 425 q 133 345 133 250 q 133 161 161 97 q 188 33 248 -17 q 301 -62 372 -86 q 443 -110 522 -110 q 605 -110 682 -85 q 758 -60 828 -9 l 844 -29 q 772 -83 692 -110 q 611 -137 523 -137 q 431 -137 354 -115 q 278 -93 220 -49 q 146 6 108 86 q 69 166 69 262 q 69 361 111 448 q 153 535 234 601 q 299 655 378 683 q 456 710 545 710 q 714 710 816 618 q 918 526 918 374 q 918 296 889 229 q 861 161 808 113 q 779 87 747 74 q 714 60 681 60 q 634 60 608 86 q 583 112 579 162 z m 539 469 q 513 469 491 454 q 469 439 447 406 q 412 354 392 292 q 371 230 371 180 q 371 138 390 113 q 410 87 440 87 q 472 87 500 108 q 528 129 554 173 q 581 218 597 272 q 614 327 614 369 q 614 414 593 442 q 573 469 539 469 z"},".":{"x_min":0,"x_max":255,"ha":255,"o":"m 182 52 q 182 25 163 5 q 143 -14 116 -14 q 88 -14 69 5 q 50 24 50 52 q 50 80 69 99 q 88 118 116 118 q 144 118 163 99 q 182 79 182 52 z"},"p":{"x_min":0,"x_max":553,"ha":553,"o":"m 103 -211 l 174 -211 l 174 -234 l -67 -234 l -67 -211 l -6 -211 l 128 366 l 51 366 l 51 389 l 109 389 q 144 389 171 391 q 199 394 223 398 l 244 398 l 228 332 l 234 332 q 261 367 293 384 q 325 400 365 400 q 429 400 469 356 q 510 312 510 243 q 510 198 490 153 q 470 107 433 68 q 396 28 353 7 q 311 -13 264 -13 q 229 -13 207 3 q 185 20 173 54 l 164 54 z m 259 14 q 295 14 322 43 q 348 72 369 137 q 387 191 398 241 q 409 291 409 315 q 409 344 394 359 q 378 373 347 373 q 308 373 273 342 q 238 312 218 258 q 204 220 195 173 q 185 127 185 103 q 185 63 206 39 q 226 14 259 14 z"},"X":{"x_min":0,"x_max":662,"ha":662,"o":"m 176 0 l -30 0 l -30 25 l 41 25 l 277 319 l 153 641 l 67 641 l 67 667 l 366 667 l 366 641 l 278 641 l 362 421 l 370 421 l 548 641 l 449 641 l 449 667 l 667 667 l 667 641 l 587 641 l 378 383 l 517 25 l 600 25 l 600 0 l 294 0 l 294 25 l 390 25 l 294 275 l 283 275 l 78 25 l 176 25 z"},"*":{"x_min":0,"x_max":500,"ha":500,"o":"m 265 490 l 265 498 q 265 534 248 577 q 230 621 230 634 q 230 654 241 668 q 253 681 271 681 q 288 681 300 669 q 311 656 311 637 q 311 622 294 578 q 277 533 277 496 l 277 490 q 311 507 347 553 q 383 599 412 599 q 428 599 438 588 q 449 577 449 560 q 449 542 437 530 q 424 518 400 513 q 396 512 384 511 q 328 506 283 480 q 322 456 380 449 q 397 447 403 446 q 424 440 437 427 q 450 414 450 398 q 450 382 438 371 q 426 360 409 360 q 384 360 348 405 q 312 449 276 469 l 276 461 q 276 425 293 382 q 310 339 310 326 q 310 305 299 292 q 288 279 270 279 q 252 279 241 291 q 230 303 230 322 q 230 337 247 381 q 264 426 264 463 l 264 469 q 230 452 194 406 q 157 361 128 361 q 112 361 101 372 q 91 383 91 399 q 91 416 104 428 q 117 441 141 447 q 145 448 154 448 q 211 453 258 480 q 219 504 160 511 q 144 513 138 514 q 115 520 103 532 q 91 544 91 561 q 91 577 103 589 q 114 600 131 600 q 156 600 193 555 q 229 510 265 490 z"},"Y":{"x_min":0,"x_max":606,"ha":606,"o":"m 403 0 l 93 0 l 93 25 l 186 25 l 240 309 l 111 641 l 36 641 l 36 667 l 336 667 l 336 641 l 238 641 l 350 343 l 359 343 l 557 641 l 463 641 l 463 667 l 655 667 l 655 641 l 594 641 l 365 299 l 311 25 l 403 25 z"},"c":{"x_min":0,"x_max":442,"ha":442,"o":"m 369 120 l 389 109 q 353 47 307 17 q 262 -14 207 -14 q 131 -14 83 32 q 36 79 36 151 q 36 248 113 323 q 190 398 291 398 q 342 398 377 373 q 412 349 412 313 q 412 290 399 276 q 385 262 362 262 q 339 262 325 274 q 310 285 310 303 q 310 320 323 336 q 335 352 335 353 q 335 363 323 369 q 312 376 294 376 q 251 376 228 358 q 204 340 185 294 q 164 242 150 183 q 137 124 137 87 q 137 52 158 32 q 179 12 216 12 q 255 12 293 39 q 331 65 369 120 z"},"!":{"x_min":0,"x_max":315,"ha":315,"o":"m 175 50 q 175 23 156 3 q 136 -16 109 -16 q 81 -16 62 3 q 43 22 43 50 q 43 78 62 97 q 81 116 109 116 q 136 116 156 97 q 175 77 175 50 z m 148 209 l 119 209 q 159 382 162 570 q 162 572 162 573 q 163 630 180 656 q 196 681 232 681 q 258 681 275 666 q 292 650 292 627 q 292 612 237 481 q 182 349 148 209 z"},"/":{"x_min":0,"x_max":278,"ha":278,"o":"m 36 -93 l -15 -93 l 236 681 l 287 681 z"},"[":{"x_min":0,"x_max":347,"ha":347,"o":"m 248 -209 l 3 -209 l 173 667 l 418 667 l 411 634 l 238 634 l 81 -176 l 254 -176 z"},"6":{"x_min":0,"x_max":509,"ha":509,"o":"m 175 319 q 156 251 145 190 q 134 129 134 93 q 134 54 156 30 q 178 6 214 6 q 250 6 276 32 q 302 59 319 112 q 334 156 343 211 q 352 267 352 310 q 352 346 337 364 q 321 382 290 382 q 266 382 239 367 q 211 352 175 319 z m 466 646 l 466 622 q 374 609 305 548 q 236 487 189 375 l 196 367 q 223 389 247 398 q 271 408 295 408 q 369 408 414 362 q 459 315 459 239 q 459 139 385 62 q 312 -16 220 -16 q 141 -16 89 43 q 37 102 37 194 q 37 266 68 342 q 100 418 156 484 q 218 555 294 594 q 370 634 466 646 z"},"r":{"x_min":0,"x_max":428,"ha":428,"o":"m 148 0 l 46 0 l 130 366 l 56 366 l 56 389 l 112 389 q 145 389 171 391 q 198 394 221 398 l 241 398 l 223 312 l 230 312 q 271 359 302 378 q 333 398 364 398 q 393 398 410 383 q 427 369 427 344 q 427 317 415 305 q 403 292 377 292 q 346 292 332 315 q 318 339 303 339 q 276 339 240 291 q 203 244 191 192 z"},"2":{"x_min":0,"x_max":509,"ha":509,"o":"m 416 178 l 375 0 l 10 0 l 20 62 l 61 99 q 340 351 340 490 q 340 553 317 582 q 295 612 247 612 q 199 612 160 582 q 122 552 122 517 q 122 512 126 510 q 130 507 137 507 q 139 507 145 508 q 151 509 155 509 q 173 509 188 494 q 202 479 202 457 q 202 433 188 418 q 174 404 151 404 q 121 404 104 425 q 87 446 87 483 q 87 549 142 597 q 197 645 278 645 q 354 645 404 604 q 454 564 454 502 q 454 461 436 425 q 417 390 359 332 q 317 290 227 212 q 136 135 96 92 l 96 86 l 316 86 q 344 86 355 95 q 366 105 376 136 l 388 178 z"},"{":{"x_min":0,"x_max":500,"ha":500,"o":"m 414 740 l 414 714 q 348 713 323 688 q 299 662 299 585 l 299 516 q 299 405 270 365 q 241 326 164 310 q 242 294 270 255 q 299 215 299 104 l 299 35 q 299 -42 323 -67 q 347 -92 414 -93 l 414 -119 l 409 -119 q 302 -119 262 -83 q 222 -47 222 50 l 222 151 q 222 229 193 259 q 165 289 87 295 l 87 326 q 166 333 194 362 q 222 392 222 470 l 222 571 q 222 668 262 704 q 302 740 409 740 z"},"9":{"x_min":0,"x_max":509,"ha":509,"o":"m 48 -17 l 48 7 q 142 21 210 83 q 279 144 325 254 l 319 262 q 293 241 269 232 q 245 222 219 222 q 146 222 100 269 q 55 315 55 391 q 55 491 128 568 q 202 645 294 645 q 374 645 426 586 q 478 528 478 436 q 478 364 447 287 q 415 210 358 145 q 296 74 220 35 q 145 -5 48 -17 z m 340 311 q 359 379 370 439 q 381 500 381 536 q 381 575 358 599 q 336 623 300 623 q 265 623 239 597 q 213 570 196 517 q 181 472 171 417 q 162 361 162 319 q 162 283 178 265 q 193 247 225 247 q 249 247 276 262 q 303 277 340 311 z"}," ":{"x_min":0,"x_max":255,"ha":255,"o":""},"I":{"x_min":0,"x_max":387,"ha":387,"o":"m 281 0 l -23 0 l -23 25 l 71 25 l 191 641 l 108 641 l 108 667 l 411 667 l 411 641 l 316 641 l 197 25 l 281 25 z"},"H":{"x_min":0,"x_max":773,"ha":773,"o":"m 275 0 l 5 0 l 5 25 l 68 25 l 187 641 l 104 641 l 104 667 l 405 667 l 405 641 l 310 641 l 255 359 l 527 359 l 582 641 l 498 641 l 498 667 l 769 667 l 769 641 l 706 641 l 586 25 l 669 25 l 669 0 l 368 0 l 368 25 l 463 25 l 521 329 l 249 329 l 191 25 l 275 25 z"},"4":{"x_min":0,"x_max":509,"ha":509,"o":"m 386 0 l 129 0 l 129 23 l 211 23 l 240 164 l 8 164 l 8 199 q 80 302 173 411 q 266 521 387 646 l 440 646 l 347 196 l 429 196 l 445 269 l 468 269 l 432 93 l 409 93 l 422 164 l 340 164 l 312 23 l 386 23 z m 247 196 l 316 531 q 236 446 167 362 q 97 277 39 196 z"},"~":{"x_min":0,"x_max":833,"ha":833,"o":"m 747 376 l 747 300 q 696 265 650 248 q 604 231 557 231 q 512 231 432 259 q 421 263 416 265 l 408 268 q 322 297 275 297 q 234 297 189 279 q 145 261 87 220 l 87 296 q 139 331 186 349 q 232 366 276 366 q 306 366 338 360 q 370 353 418 336 q 426 333 441 328 q 519 300 558 300 q 601 300 646 318 q 690 336 747 376 z"},"D":{"x_min":0,"x_max":718,"ha":718,"o":"m 191 25 l 265 25 q 346 25 391 47 q 436 68 464 118 q 502 185 521 271 q 541 356 541 454 q 541 557 502 599 q 463 641 365 641 l 310 641 z m 5 0 l 5 25 l 68 25 l 187 641 l 104 641 l 104 667 l 381 667 q 429 667 466 660 q 502 654 530 640 q 597 607 636 536 q 676 466 676 379 q 676 293 637 213 q 598 133 528 77 q 477 36 422 18 q 367 0 287 0 z"},"^":{"x_min":0,"x_max":1000,"ha":1000,"o":"m 452 714 l 547 714 l 797 438 l 749 438 l 499 643 l 248 438 l 201 438 z"},"0":{"x_min":0,"x_max":509,"ha":509,"o":"m 311 648 q 385 648 431 582 q 476 516 476 406 q 476 331 455 257 q 435 183 397 125 q 353 55 301 18 q 250 -19 198 -19 q 125 -19 79 48 q 33 114 33 223 q 33 299 53 373 q 74 447 111 504 q 155 573 207 611 q 259 648 311 648 z m 199 2 q 241 2 265 35 q 290 67 320 181 q 349 292 366 392 q 383 493 383 542 q 383 588 366 608 q 349 627 309 627 q 266 627 241 593 q 216 559 188 449 q 159 338 143 238 q 126 138 126 87 q 126 41 143 21 q 160 2 199 2 z"},"F":{"x_min":0,"x_max":611,"ha":611,"o":"m 250 332 l 190 25 l 275 25 l 275 0 l -30 0 l -30 25 l 64 25 l 184 641 l 101 641 l 101 667 l 606 667 l 580 484 l 551 484 l 551 509 q 551 576 520 609 q 489 641 425 641 l 309 641 l 255 356 l 271 356 q 333 356 368 384 q 402 411 419 475 l 445 475 l 391 199 l 364 199 l 364 223 q 364 293 342 313 q 320 332 259 332 z"},"`":{"x_min":0,"x_max":500,"ha":500,"o":"m 382 452 l 343 452 l 213 549 q 199 560 191 570 q 184 581 184 591 q 184 607 195 617 q 206 628 221 628 q 231 628 242 621 q 252 615 262 603 z"},"k":{"x_min":0,"x_max":562,"ha":562,"o":"m 317 244 q 362 231 380 205 q 398 178 398 122 q 398 114 396 93 q 394 73 394 60 q 394 49 400 41 q 407 33 415 33 q 431 33 454 60 q 477 86 505 137 l 525 129 q 494 59 453 22 q 412 -14 363 -14 q 325 -14 308 3 q 290 20 290 57 q 290 86 304 135 q 318 183 318 197 q 318 208 313 215 q 308 223 301 223 q 298 223 278 212 q 258 201 240 201 q 233 201 223 202 q 213 204 202 206 l 197 206 l 146 0 l 38 0 l 194 646 l 117 646 l 117 669 l 175 669 q 209 669 236 671 q 263 673 288 678 l 310 678 l 203 239 l 209 239 q 229 251 262 254 q 294 256 308 275 q 316 287 330 312 q 377 398 442 398 q 478 398 499 380 q 519 362 519 331 q 519 311 506 297 q 493 283 473 283 q 451 283 439 294 q 427 305 427 324 q 427 336 434 348 q 442 360 442 364 q 442 367 439 368 q 436 369 429 369 q 396 369 360 309 q 336 267 317 244 z"},"u":{"x_min":0,"x_max":553,"ha":553,"o":"m 520 139 l 540 130 q 521 68 475 26 q 429 -15 382 -15 q 349 -15 331 1 q 312 17 312 45 q 312 49 312 55 q 313 61 314 73 l 305 73 q 263 29 226 8 q 188 -12 149 -12 q 107 -12 84 7 q 61 26 61 61 q 61 69 62 80 q 64 90 67 104 l 127 366 l 53 366 l 53 389 l 109 389 q 142 389 168 391 q 194 394 218 398 l 239 398 l 165 81 q 164 76 163 71 q 162 66 162 61 q 162 45 171 38 q 180 31 200 31 q 237 31 282 78 q 328 126 338 172 l 389 389 l 491 389 l 416 67 q 416 64 415 62 q 415 59 415 54 q 415 45 420 41 q 424 36 434 36 q 453 36 478 66 q 504 95 520 139 z"},"]":{"x_min":0,"x_max":347,"ha":347,"o":"m 59 666 l 304 666 l 134 -209 l -110 -209 l -104 -176 l 69 -176 l 226 634 l 53 634 z"},"U":{"x_min":0,"x_max":718,"ha":718,"o":"m 187 641 l 104 641 l 104 667 l 405 667 l 405 641 l 310 641 l 222 186 q 219 172 218 157 q 216 142 216 126 q 216 71 247 41 q 277 11 333 11 q 413 11 464 59 q 515 107 533 200 l 619 641 l 536 641 l 536 667 l 744 667 l 744 641 l 649 641 l 567 218 q 543 91 483 35 q 423 -21 313 -21 q 216 -21 157 24 q 98 69 98 142 q 98 156 100 175 q 103 194 107 219 z"},"o":{"x_min":0,"x_max":495,"ha":495,"o":"m 280 377 q 242 377 216 352 q 191 327 173 271 q 159 228 150 179 q 142 131 142 97 q 142 51 160 30 q 178 9 216 9 q 254 9 280 34 q 305 59 323 115 q 337 161 346 208 q 354 256 354 289 q 354 335 336 356 q 319 377 280 377 z m 284 399 q 361 399 409 352 q 458 305 458 231 q 458 137 382 61 q 306 -14 210 -14 q 134 -14 86 33 q 37 81 37 154 q 37 248 113 323 q 189 399 284 399 z"},"N":{"x_min":0,"x_max":718,"ha":718,"o":"m 178 0 l -19 0 l -19 25 l 63 25 l 184 641 l 101 641 l 101 667 l 331 667 l 520 205 l 531 205 l 618 641 l 532 641 l 532 667 l 731 667 l 731 641 l 650 641 l 518 -21 l 481 -21 l 219 614 l 210 614 l 93 25 l 178 25 z"},"+":{"x_min":0,"x_max":833,"ha":833,"o":"m 382 596 l 451 596 l 451 332 l 709 332 l 709 264 l 451 264 l 451 0 l 382 0 l 382 264 l 124 264 l 124 332 l 382 332 z"},"G":{"x_min":0,"x_max":718,"ha":718,"o":"m 674 244 l 674 219 l 602 219 q 578 106 502 45 q 426 -17 312 -17 q 190 -17 116 57 q 43 131 43 254 q 43 333 79 416 q 114 500 176 566 q 230 624 292 653 q 353 681 424 681 q 465 681 495 669 q 525 657 555 629 l 596 669 l 618 669 l 590 479 l 563 479 q 548 571 513 615 q 478 660 421 660 q 362 660 317 619 q 272 578 240 495 q 208 414 191 329 q 174 245 174 172 q 174 93 207 52 q 241 10 304 10 q 377 10 414 59 q 451 109 460 219 l 370 219 l 370 244 z"},"q":{"x_min":0,"x_max":521,"ha":521,"o":"m 337 -211 l 405 -211 l 405 -234 l 157 -234 l 157 -211 l 231 -211 l 291 43 q 267 13 238 -1 q 208 -15 170 -15 q 112 -15 74 29 q 36 73 36 138 q 36 182 54 227 q 71 272 103 308 q 142 354 184 376 q 225 398 270 398 q 304 398 325 382 q 347 366 357 331 l 365 331 l 380 389 l 481 389 z m 273 371 q 240 371 216 342 q 192 313 172 248 q 155 195 146 145 q 136 95 136 70 q 136 42 150 27 q 165 12 192 12 q 228 12 260 43 q 292 74 311 128 q 324 164 332 210 q 341 255 341 283 q 341 323 322 347 q 304 371 273 371 z"},"d":{"x_min":0,"x_max":560,"ha":560,"o":"m 525 139 l 546 128 q 523 65 478 25 q 434 -15 389 -15 q 354 -15 335 0 q 316 15 316 44 l 316 53 l 310 53 q 281 17 250 1 q 218 -15 175 -15 q 115 -15 74 29 q 34 74 34 138 q 34 182 52 226 q 71 271 104 308 q 145 354 188 376 q 231 398 280 398 q 315 398 338 381 q 361 365 372 331 l 380 331 l 453 646 l 376 646 l 376 669 l 434 669 q 468 669 496 671 q 523 673 548 678 l 569 678 l 421 67 q 421 66 420 64 q 419 57 419 54 q 419 45 424 41 q 429 36 439 36 q 458 36 483 66 q 508 95 525 139 z m 286 372 q 250 372 223 343 q 196 313 175 248 q 157 195 147 145 q 136 95 136 70 q 136 41 151 26 q 166 12 197 12 q 236 12 271 43 q 306 74 326 128 q 340 167 350 213 q 360 259 360 282 q 360 322 339 347 q 319 372 286 372 z"},"1":{"x_min":0,"x_max":509,"ha":509,"o":"m 373 0 l 44 0 l 44 23 l 153 23 l 266 548 q 269 562 269 568 q 270 574 270 577 q 270 609 170 610 q 157 610 150 610 l 150 633 q 176 633 225 636 q 274 639 371 646 l 389 646 l 258 23 l 373 23 z"},"5":{"x_min":0,"x_max":509,"ha":509,"o":"m 451 667 l 470 667 q 464 604 437 577 q 409 550 349 550 l 198 550 q 185 550 181 547 q 177 544 174 535 l 129 363 q 161 373 191 378 q 221 384 247 384 q 335 384 389 338 q 442 292 442 215 q 442 123 361 53 q 281 -16 169 -16 q 105 -16 64 17 q 23 50 23 97 q 23 129 39 148 q 56 167 82 167 q 104 167 118 152 q 132 137 132 115 q 132 87 108 67 q 84 48 84 45 q 84 29 107 18 q 130 6 165 6 q 208 6 237 26 q 267 47 289 91 q 307 128 317 170 q 327 211 327 248 q 327 297 298 326 q 268 354 216 354 q 190 354 163 347 q 136 341 105 327 l 98 338 l 162 589 q 168 611 181 623 q 195 634 215 634 l 389 634 q 417 634 432 642 q 448 651 451 667 z"}}}
